<svg height="512" viewBox="0 0 128 128" width="512" xmlns="http://www.w3.org/2000/svg"><g><path d="m54.945 33.919h40.905v37.367h-40.905z" fill="#ef3829" transform="matrix(.707 .707 -.707 .707 59.279 -37.907)"/><path d="m100.575 11.964h20.372v10.549h-20.372z" fill="#ef3829" transform="matrix(.707 .707 -.707 .707 44.631 -73.271)"/><path d="m74.109 77.737a49.912 49.912 0 0 0 -23.623 23.623c-8.542 18.549-22.051 22.64-25.429 19.257l-17.674-17.674c-3.378-3.378.708-16.887 19.257-25.429a49.912 49.912 0 0 0 23.623-23.623z" fill="#8c3f07"/><path d="m100.532 51.314c8.845-8.845 11.094-25.751 11.094-25.751l-9.189-9.189s-16.906 2.249-25.751 11.094z" fill="#8c3f07"/><path d="m54.65 44.426s14.982.321 21.8 14.773a25.707 25.707 0 0 0 10 11.273l3.883-3.883a36.273 36.273 0 0 1 -7.568-12.166c-6.19-16.607-20.98-17.134-20.98-17.134z" fill="#f2e7cb"/><path d="m30.781 113.083a1.75 1.75 0 0 1 -.86-3.275c6.4-3.605 9.634-11.03 9.666-11.105a1.75 1.75 0 0 1 3.217 1.379c-.15.349-3.748 8.594-11.165 12.775a1.743 1.743 0 0 1 -.858.226z" fill="#723307"/></g></svg>